<svg height="512" viewBox="0 0 512 512" width="512" xmlns="http://www.w3.org/2000/svg"><g id="flat"><path d="m452.357 457.463a60 60 0 0 0 -38.871-49.205l-92.218-33.753a39.27 39.27 0 0 1 -23.757-24.459 39.27 39.27 0 0 1 -2.015-12.419v-27.627h-80v27.816a39.27 39.27 0 0 1 -1.9 12.068l-.009.03a39.274 39.274 0 0 1 -23.818 24.79l-91.255 33.554a60 60 0 0 0 -38.871 49.205l-3.643 30.537h400z" fill="#fdc9a6"/><path d="m295.5 310v17.78a56.208 56.208 0 0 1 -80-1.01v-16.77z" fill="#f6bb92"/><path d="m295.5 310v17.78a56.208 56.208 0 0 1 -80-1.01v-16.77z" fill="#e6af89"/><path d="m232 55.284-7.1-4.262a77.338 77.338 0 0 0 -68.515-5.49 77.341 77.341 0 0 0 -48.351 65.386 146.027 146.027 0 0 0 21.693 89.521l7.863 12.582a33.128 33.128 0 0 1 4.7 22.242 133.4 133.4 0 0 1 -37.732 75.463l-8.558 8.558h1.518c38.777.871 76.57-16.979 102.482-48z" fill="#55300b"/><path d="m175.5 176h-11.06a20.944 20.944 0 0 0 -20.94 20.944v14.112a20.944 20.944 0 0 0 2.211 9.366 20.944 20.944 0 0 0 18.729 11.578h19.56z" fill="#fdc9a6"/><path d="m335.5 176h11.055a20.944 20.944 0 0 1 20.945 20.944v14.112a20.944 20.944 0 0 1 -2.211 9.366 20.944 20.944 0 0 1 -18.738 11.578h-18.551z" fill="#fdc9a6"/><path d="m312 208 19.459-12.973a59.522 59.522 0 0 0 26.388-53.261 100.048 100.048 0 0 0 -99.847-93.766 100.194 100.194 0 0 0 -99.786 91.154 81.777 81.777 0 0 0 30.6 59.891l11.186 8.955z" fill="#683b0d"/><path d="m392 488h-272a80.016 80.016 0 0 0 32-64v-35.41l37.77-13.89c.76-.28 1.5-.58 2.23-.9v18.2a64 64 0 0 0 128 0v-18c.42.18.84.34 1.27.5l38.73 14.18v35.32a80.016 80.016 0 0 0 32 64z" fill="#f6bb92"/><path d="m207.664 300.484a222.368 222.368 0 0 1 -31.164-113.521v-18.963a49.767 49.767 0 0 0 36.838-40.054l2.662-15.946a258.342 258.342 0 0 0 108.974 53.645l10.526 2.355v18.963a222.368 222.368 0 0 1 -31.16 113.521 56.212 56.212 0 0 1 -48.34 27.516 56.212 56.212 0 0 1 -48.336-27.516z" fill="#fdc9a6"/><path d="m303.5 192h-24a8 8 0 0 1 0-16h24a8 8 0 0 1 0 16z" fill="#683b0d"/><circle cx="289.496" cy="211" fill="#683b0d" r="11"/><path d="m232 192h-23.5a8 8 0 0 1 0-16h23.5a8 8 0 0 1 0 16z" fill="#683b0d"/><circle cx="221.496" cy="211" fill="#683b0d" r="11"/><g fill="#e6af89"><path d="m256 286.613a30.536 30.536 0 0 1 -21.657-8.956 8 8 0 0 1 11.314-11.314 14.628 14.628 0 0 0 20.686 0 8 8 0 0 1 11.314 11.314 30.536 30.536 0 0 1 -21.657 8.956z"/><path d="m264 256h-16a8 8 0 0 1 -8-8v-16a8 8 0 0 1 16 0v8h8a8 8 0 0 1 0 16z"/><path d="m96 488v-32a8 8 0 0 1 16 0v32z"/><path d="m400 488v-32a8 8 0 0 1 16 0v32z"/></g><path d="m313.36 162.76q-9.555-2.61-18.85-5.93l-14.1-42.3a8 8 0 1 1 15.18-5.06z" fill="#55300b"/><path d="m277.06 149.87q-4.935-2.175-9.77-4.55-5.28-2.595-10.43-5.43l-8.45-25.36a8 8 0 1 1 15.18-5.06z" fill="#55300b"/><path d="m340.15 180.46a7.973 7.973 0 0 1 -2.53.41 7.862 7.862 0 0 1 -2.12-.29v-12.58l-8.57-1.91-14.52-43.56a8 8 0 1 1 15.18-5.06l17.62 52.87a8 8 0 0 1 -5.06 10.12z" fill="#55300b"/><path d="m392 488h-272a80.016 80.016 0 0 0 32-64v-35.41l37.77-13.89c.76-.28 1.5-.58 2.23-.9v18.2a64 64 0 0 0 128 0v-18c.42.18.84.34 1.27.5l38.73 14.18v35.32a80.016 80.016 0 0 0 32 64z" fill="#f1746a"/><path d="m272 408a8 8 0 0 1 -5.657-13.657l16-16a8 8 0 0 1 11.314 11.314l-16 16a7.976 7.976 0 0 1 -5.657 2.343z" fill="#e6af89"/><path d="m240 408a7.976 7.976 0 0 1 -5.657-2.343l-16-16a8 8 0 0 1 11.314-11.314l16 16a8 8 0 0 1 -5.657 13.657z" fill="#e6af89"/></g></svg>